# xmcd
#
# Track frame offsets: 
#        150
#        14729
#        29344
#        46607
#        64821
#        82299
#        98882
#        113055
#        128465
#        142048
#        157081
#        173016
#
# Disc length: 2525 seconds
#
# Revision: 0
# Processed by: cddbd v1.5.1PL2 Copyright (c) Steve Scherf et al.
# Submitted via: ExactAudioCopy v0.95a5
#
DISCID=9f09db0c
DTITLE=Dennis Cavalier - Blue Orleans
DYEAR=2000
DGENRE=Revival
TTITLE0=More Blues
TTITLE1=Taxi Driver
TTITLE2=All I Can Do Is Cry
TTITLE3=Springtime In Mississippi
TTITLE4=Fess It Up
TTITLE5=Lonely Is My Name
TTITLE6=Dig A Hole
TTITLE7=Thibodaux
TTITLE8=Music's My Wife
TTITLE9=Can't Get It Right
TTITLE10=Lousiana My Home
TTITLE11=Troubled Heart
EXTD=
EXTT0=
EXTT1=
EXTT2=
EXTT3=
EXTT4=
EXTT5=
EXTT6=
EXTT7=
EXTT8=
EXTT9=
EXTT10=
EXTT11=
PLAYORDER=
